<svg xmlns="http://www.w3.org/2000/svg" width="17" height="17" viewBox="0 0 17 17" fill="none">
  <g clip-path="url(#clip0_1_35)">
    <mask id="mask0_1_35" style="mask-type:luminance" maskUnits="userSpaceOnUse" x="1" y="0" width="16" height="17">
      <path d="M15.9069 7.27441H8.74035V10.2459H12.8655C12.4809 12.1337 10.8728 13.2174 8.74035 13.2174C6.22332 13.2174 4.19572 11.1898 4.19572 8.67275C4.19572 6.15573 6.22332 4.12812 8.74035 4.12812C9.82407 4.12812 10.8029 4.51267 11.572 5.14193L13.8094 2.90457C12.446 1.71597 10.698 0.981842 8.74035 0.981842C4.47539 0.981842 1.04944 4.40779 1.04944 8.67275C1.04944 12.9377 4.47539 16.3637 8.74035 16.3637C12.5858 16.3637 16.0817 13.567 16.0817 8.67275C16.0817 8.21829 16.0118 7.72887 15.9069 7.27441Z" fill="white"/>
    </mask>
    <g mask="url(#mask0_1_35)">
      <path d="M0.350342 13.2174V4.12811L6.29332 8.67274L0.350342 13.2174Z" fill="#FBBC05"/>
    </g>
    <mask id="mask1_1_35" style="mask-type:luminance" maskUnits="userSpaceOnUse" x="1" y="0" width="16" height="17">
      <path d="M15.9069 7.27441H8.74035V10.2459H12.8655C12.4809 12.1337 10.8728 13.2174 8.74035 13.2174C6.22332 13.2174 4.19572 11.1898 4.19572 8.67275C4.19572 6.15573 6.22332 4.12812 8.74035 4.12812C9.82407 4.12812 10.8029 4.51267 11.572 5.14193L13.8094 2.90457C12.446 1.71597 10.698 0.981842 8.74035 0.981842C4.47539 0.981842 1.04944 4.40779 1.04944 8.67275C1.04944 12.9377 4.47539 16.3637 8.74035 16.3637C12.5858 16.3637 16.0817 13.567 16.0817 8.67275C16.0817 8.21829 16.0118 7.72887 15.9069 7.27441Z" fill="white"/>
    </mask>
    <g mask="url(#mask1_1_35)">
      <path d="M0.350342 4.12811L6.29332 8.67274L8.74043 6.54026L17.1305 5.17687V0.282654H0.350342V4.12811Z" fill="#EA4335"/>
    </g>
    <mask id="mask2_1_35" style="mask-type:luminance" maskUnits="userSpaceOnUse" x="1" y="0" width="16" height="17">
      <path d="M15.9069 7.27441H8.74035V10.2459H12.8655C12.4809 12.1337 10.8728 13.2174 8.74035 13.2174C6.22332 13.2174 4.19572 11.1898 4.19572 8.67275C4.19572 6.15573 6.22332 4.12812 8.74035 4.12812C9.82407 4.12812 10.8029 4.51267 11.572 5.14193L13.8094 2.90457C12.446 1.71597 10.698 0.981842 8.74035 0.981842C4.47539 0.981842 1.04944 4.40779 1.04944 8.67275C1.04944 12.9377 4.47539 16.3637 8.74035 16.3637C12.5858 16.3637 16.0817 13.567 16.0817 8.67275C16.0817 8.21829 16.0118 7.72887 15.9069 7.27441Z" fill="white"/>
    </mask>
    <g mask="url(#mask2_1_35)">
      <path d="M0.350342 13.2174L10.8379 5.17687L13.5997 5.52646L17.1305 0.282654V17.0628H0.350342V13.2174Z" fill="#34A853"/>
    </g>
    <mask id="mask3_1_35" style="mask-type:luminance" maskUnits="userSpaceOnUse" x="1" y="0" width="16" height="17">
      <path d="M15.9069 7.27441H8.74035V10.2459H12.8655C12.4809 12.1337 10.8728 13.2174 8.74035 13.2174C6.22332 13.2174 4.19572 11.1898 4.19572 8.67275C4.19572 6.15573 6.22332 4.12812 8.74035 4.12812C9.82407 4.12812 10.8029 4.51267 11.572 5.14193L13.8094 2.90457C12.446 1.71597 10.698 0.981842 8.74035 0.981842C4.47539 0.981842 1.04944 4.40779 1.04944 8.67275C1.04944 12.9377 4.47539 16.3637 8.74035 16.3637C12.5858 16.3637 16.0817 13.567 16.0817 8.67275C16.0817 8.21829 16.0118 7.72887 15.9069 7.27441Z" fill="white"/>
    </mask>
    <g mask="url(#mask3_1_35)">
      <path d="M17.1304 17.0628L6.29325 8.67274L4.8949 7.62398L17.1304 4.12811V17.0628Z" fill="#4285F4"/>
    </g>
  </g>
  <defs>
    <clipPath id="clip0_1_35">
      <rect width="15.3818" height="15.3818" fill="white" transform="translate(0.809082 0.981842)"/>
    </clipPath>
  </defs>
</svg>