<?xml version="1.0" encoding="UTF-8"?>
<svg id="Camada_1" data-name="Camada 1" xmlns="http://www.w3.org/2000/svg" viewBox="0 0 3000 3000">
  <defs>
    <style>
      .cls-1 {
        fill: #eb5c1c;
      }
    </style>
  </defs>
  <g id="SPLINE">
    <path class="cls-1" d="m185.44,1252.45c9.53-520.97,232.44-727.18,735.25-737.76,385.99-20.26,772.79-20.26,1158.79,0,187.05,9.81,332.2,27.15,483.49,119.6-259.62,93.55-507.94,206-769.44,335.4-217.93-6.04-435.99-5.35-653.87,2.07-417.19,1.04-380.84,334.91-375.98,648.91,630.77-295.72,1235.42-669,1899.02-898.01,121.22,146.62,142.68,341.97,152.02,529.8,1.56,325.07,54.51,818.87-177.96,1052.68-146.16,142.24-349.36,170.9-557.28,179.63-386,20.25-772.8,20.25-1158.8,0-195.06-9.83-347.88-29.41-501.74-132.24,253.72-90.26,496.95-198.98,751.39-323.84,230.01,7.16,460.19,6.83,690.17-1,425.81-.46,379.7-351.28,375.43-667.65-634.26,297.6-1242.42,673.39-1910.58,901.73-184.84-242.84-143.4-709.83-139.91-1009.32Z"/>
  </g>
</svg>