<?xml version="1.0" encoding="utf-8"?>
<!-- Generator: Adobe Illustrator 27.3.1, SVG Export Plug-In . SVG Version: 6.00 Build 0)  -->
<svg version="1.1" id="Camada_1" xmlns="http://www.w3.org/2000/svg" xmlns:xlink="http://www.w3.org/1999/xlink" x="0px" y="0px"
	 viewBox="0 0 1000 1000" style="enable-background:new 0 0 1000 1000;" xml:space="preserve">
<g>
	<path d="M755.9,219.2c-158.1,0-316.2,0-474.7,0c0.4-2,1.9-2.9,2.9-3.9c31.7-31.7,63.4-63.4,95.1-95.1c7.8-7.8,15.6-15.5,23.3-23.4
		c1.5-1.6,3.1-2.5,5.3-2.2c0.7,0.1,1.3,0,2,0c169.4,0,338.9,0,508.3,0c1.8,0,3.7,0,6,0c0,2.3,0,4.2,0,6c0,178.6,0,357.2,0,535.8
		c0,3.6-0.1,7.3,0,10.9c0.1,2.3-0.8,3.6-2.8,4.7c-14.4,8.3-28.8,16.6-43.2,25c-39.3,22.7-78.5,45.4-117.8,68.2c-1,0.6-2.1,1.1-3,1.6
		c-0.3-0.1-0.5-0.2-0.6-0.2c-0.1-0.1-0.2-0.2-0.2-0.3c-0.1-0.1-0.1-0.3-0.1-0.4c0-0.3,0-0.5,0-0.8c0-0.3,0-0.5,0-0.8
		c0-174.3,0-348.6,0-522.9c0-0.3,0-0.5-0.1-0.8c0-0.1,0-0.3-0.1-0.4C756.3,220,756.2,219.9,755.9,219.2z"/>
	<path d="M270.4,270.9c0,176.5,0,352.1,0,528.1c158.6,0,316.8,0,475.9,0c-1.2,1.5-1.8,2.3-2.4,3c-39.9,39.9-79.8,79.7-119.6,119.6
		c-1.3,1.3-2.7,2.1-4.6,1.9c-0.8-0.1-1.6,0-2.4,0c-169.6,0-339.2,0-508.7,0c-1.7,0-3.4,0-5.5,0c0-185.4,0-370.5,0-555.8
		C158.6,335.6,214.1,303.5,270.4,270.9z"/>
	<path d="M571.4,392.5c-2.4,0-4,0-5.6,0c-71.8,0-143.7,0-215.5,0c-1.1,0-2.2-0.1-3.2,0c-2,0.2-3.1-0.6-4.1-2.4
		c-4.4-8-9-15.9-13.6-23.8c-16.8-29.3-33.6-58.7-50.4-88.1c-0.6-1.1-1.2-2.3-1.9-3.9c152.5,0,304.6,0,457,0c0.1,1.1,0.3,2.2,0.3,3.4
		c0,25.9,0,51.8,0.1,77.8c0,2.6-1.1,4.3-2.6,6.1c-16.8,20.4-33.7,40.8-50.5,61.2C627.9,487.8,574.4,552.6,521,617.5
		c-5.4,6.5-10.8,13.1-16.1,19.6c-0.6,0.8-1.2,1.6-2.2,3c77.4,0,154.1,0,231.3,0c0.6,10.1,0.2,19.8,0.3,29.5c0.1,9.8,0,19.6,0,29.4
		s0,19.6,0,29.4c0,9.8,0,19.6,0,29.2c-3.2,0.9-383.5,1.2-390,0.4c-0.1-1.1-0.2-2.2-0.2-3.4c0-27.5,0-55.1-0.1-82.6
		c0-2.3,0.7-4.1,2.2-5.8c53-64.3,106-128.7,159-193.1c21.3-25.8,42.5-51.6,63.7-77.4C569.6,395,570.2,394.1,571.4,392.5z"/>
</g>
</svg>
