<?xml version="1.0" encoding="utf-8"?>
<!-- Generator: Adobe Illustrator 27.3.1, SVG Export Plug-In . SVG Version: 6.00 Build 0)  -->
<svg version="1.1" xmlns="http://www.w3.org/2000/svg" xmlns:xlink="http://www.w3.org/1999/xlink" x="0px" y="0px"
	 viewBox="0 0 3000 3000" style="enable-background:new 0 0 3000 3000;" xml:space="preserve">
<style type="text/css">
	.st0{display:none;}
	.st1{display:inline;}
	.st2{display:none;fill:#FFFFFF;}
</style>
<g id="Camada_1" class="st0">
	<g id="SPLINE" class="st1">
		<g>
			
				<image style="overflow:visible;" width="2332" height="2189" xlink:href="71B2CABF.png"  transform="matrix(1 0 0 1 334.025 490.7126)">
			</image>
		</g>
	</g>
</g>
<g id="Camada_3" class="st0">
</g>
<g id="Camada_4" class="st0">
</g>
<g id="Camada_5">
	<g>
		<path class="st2" d="M0,2995.9c0-1000,0-2000,0-3000c1000,0,2000,0,3000,0c0,1000,0,2000,0,3000C2000,2995.9,1000,2995.9,0,2995.9
			z M461.6,1492.2c0.1,0,0.3,0,0.4,0c0-84.3,0-168.5,0-252.8c0-2.7,0-5.4-0.4-8c-1.2-8.2-5.4-12.4-13.7-13.5
			c-4.3-0.5-8.6-0.4-13-0.4c-54.3,0-108.7,0.3-163-0.3c-13.6-0.2-22.5,4.7-27.6,16.6c-1.3,3-1.6,7.7-0.1,10.2c3.1,5,3.2,10,3.2,15.3
			c0,41.6,0,83.3,0,124.9c0,165.2,0,330.4,0,495.6c0,6.3,0.5,12.4-3.4,18.3c-1.7,2.5-1.6,7.4-0.4,10.5c4.9,13.6,11.6,17.8,26.7,17.6
			c12.7-0.2,25.3-0.8,38-1c71.6-1.1,143.3,2,214.7-6.6c24.1-2.9,48.6-3.8,72.6-7.3c43.2-6.4,86.4-12.9,129.1-21.5
			c41.8-8.4,83.3-18.3,124.4-29.6c33.7-9.2,66.6-21.2,99.8-32.3c50-16.7,98.8-36.6,146.4-59c55.8-26.2,110.8-54.1,165.8-81.8
			c30.6-15.5,60.6-32.1,90.9-48.3c18.8-10.1,37.5-20.3,56.3-30.3c28.5-15.2,57-30.4,85.7-45.3c23.1-12,46.3-23.5,69.5-35.3
			c6-3,12.2-6.7,18.8-2.7c6.4,3.9,5.5,10.9,5.3,17.2c-0.5,25-1.3,49.9-1.4,74.9c-0.1,23.1-2.9,45.9-7.9,68.3
			c-6.6,30-24.2,51.3-53.6,60.5c-17,5.3-35,8.8-52.8,10.5c-22.8,2.2-45.9,2.4-68.9,2.6c-49.3,0.4-98.7,0.3-148,0.1
			c-17.3-0.1-33.8,2.6-49.5,10.2c-13.2,6.4-26.4,12.7-39.7,18.9c-34.2,15.7-68.1,32-102.8,46.7c-38.3,16.2-76.8,32.2-117.1,43.4
			c-4.9,1.4-10,3.2-10.1,9.5c-0.1,5.9,4.4,8.6,8.9,10.9c2.4,1.2,4.9,2,7.4,2.9c7.2,2.6,14.2,5.9,21.6,7.7
			c22,5.4,43.8,12.5,66.2,14.9c34.4,3.7,69.1,5.5,103.7,5.5c127,0.2,254-0.3,380.9-1.1c36-0.2,71.8-3.7,106.9-12.9
			c24.4-6.4,47.7-14.7,69.2-28c44.8-27.8,72.6-68.1,84.8-118.8c9.6-39.6,14-80,13.8-120.8c-0.3-64.3-0.9-128.5-1.6-192.8
			c-0.2-16,2.5-20.8,17.9-25.5c14-4.3,28.3-7.7,42.4-11.8c47.1-13.8,95.3-22.9,143.6-30.9c66.1-10.8,132.8-18.5,199.8-19.8
			c76-1.4,152-0.7,228-0.4c18.3,0.1,36.6,1.8,54.3,7.5c21.3,6.8,34.4,20.6,38.7,42.7c2.8,14.5,7.3,17.8,21.8,17.8c55,0,110,0,165,0
			c20.8,0,25.4-4.4,24.1-25.6c-1.5-23.6-3.9-47.1-9.4-70.2c-11.7-49.4-39.3-85-87.5-103.7c-28.3-11-57.9-15.9-87.8-18.3
			c-33.5-2.7-67.2-3.7-100.8-4c-57-0.6-114-0.1-171-0.1c-14.7,0-29.4-0.2-44,0.6c-39.2,2.1-78.5,4.2-117.7,7.3
			c-31.5,2.5-63,5.9-94.4,10.1c-32.7,4.5-65.3,9.8-97.6,16.1c-35.3,6.8-70.5,14.6-105.4,23c-22.3,5.3-44.4,11.9-66.3,18.8
			c-33,10.5-66.2,20.7-98.5,32.9c-46.4,17.5-92.6,35.7-137.3,57.7c-48.4,23.8-97,47.3-145,72c-44.4,22.8-88,47.4-132.3,70.6
			c-54.6,28.6-109.5,56.6-164.3,84.8c-2.1,1.1-4.2,2.1-6.5,2.6c-6.3,1.4-10.3-1.2-11.6-7.6c-0.4-1.9-0.5-4-0.4-6
			c0.9-34.3,1.7-68.6,2.9-102.9c0.6-18.1,4.3-35.6,10.8-52.6c9.1-23.6,26.4-38.3,49.8-45.3c14.6-4.4,29.9-7.3,45.1-8.4
			c29.2-2.1,58.6-3.1,87.9-3.5c40.3-0.6,80.7-0.4,121-0.1c15.7,0.1,30.4-3,44.5-9.7c25.3-12,50.6-24,76-35.6
			c24.2-11,48.6-21.8,73.1-32.3c18.7-8,37.4-15.8,56.4-23.1c18.9-7.3,38.2-13.9,57.2-20.8c2.8-1,5.8-1.9,8.3-3.4
			c7-4.3,7.2-11.6,0.4-16.1c-3.3-2.2-7.2-3.4-10.9-4.8c-33.6-13.3-69.3-17.1-104.7-19.8c-39.5-3-79.2-4-118.8-4.5
			c-65.7-0.8-131.3-0.8-197-0.5c-39.6,0.2-79.3,0.7-118.9,2.4c-48.4,2.1-96.2,8.2-143.1,21c-23,6.3-45.1,14.2-65.8,26
			c-40.7,23.4-65.6,58.7-77.4,103.5c-10,37.9-13.8,76.8-14,115.8c-0.3,65.6,0.9,131.2,1.7,196.8c0.2,18.3-3.5,23.9-20.9,28.6
			c-12.2,3.3-24.4,6.8-36.6,10.1c-49.6,13.4-99.8,23.8-150.5,32c-37.5,6.1-75.3,10.2-113.1,13.5c-12.9,1.1-25.9,2.5-38.8,3.4
			c-12.2,0.8-17.9-4.5-18.6-16.8c-0.1-1.7-0.1-3.3-0.1-5C461.6,1660.1,461.6,1576.1,461.6,1492.2z M2292.3,1930.1c0,0.5,0,1,0,1.5
			c75.9-1.8,151.9-3.3,227.8-5.5c19.3-0.6,38.5-2.9,57.6-5.5c28.7-4,57.3-8.5,84.6-19.2c44.8-17.6,74.6-48.9,88.6-95
			c2.5-8.2,2.9-17.1,9-24.1c1.3-1.5,1-4.4,1-6.7c0.1-46.6,0.1-93.3,0-139.9c0-2.8-1.1-5.7-2.1-8.5c-1.5-4-4-7.7-5-11.7
			c-3.7-15.7-9.6-30.5-17.8-44.3c-11-18.6-25.2-34.3-43.8-45.8c-24.9-15.3-52.2-23.6-81-26.7c-23.8-2.5-47.8-4.5-71.7-5.3
			c-54.6-1.8-109.2-3.1-163.9-3.8c-45.7-0.6-91.3,0.1-137-0.2c-28.3-0.2-56.6-1.2-84.9-2.2c-13.2-0.5-25.4-4.9-36.6-12
			c-9.9-6.3-17.1-14.7-20.4-26.2c-1.3-4.5-2.3-9.1-3.9-13.4c-2.7-7.6-7-10.5-15.1-10.6c-2.6,0-5.3,0.3-7.9,0.7
			c-42.7,7.1-85.5,14-128.1,21.6c-15.1,2.7-30,6.4-44.7,10.6c-11.2,3.2-15.1,8.8-14.3,19.8c2.2,31.5,8,62.2,22.9,90.4
			c11.5,21.6,27.8,38.9,49.9,50.3c20.9,10.8,42.9,18.9,66.2,21.6c32.1,3.8,64.3,7.5,96.5,8.1c72.6,1.3,145.3,0.5,218,0.9
			c43.7,0.2,87.3,1.1,130.9,1.9c10,0.2,20,1.1,29.9,2.5c24,3.5,41.2,16.1,49.9,39.2c3.5,9.3,3.7,18.9,3.5,28.6
			c-0.4,18.7-9.3,32.2-25.6,41c-12.3,6.6-25.7,8.8-39.3,10.8c-40.7,5.9-81.7,6.1-122.7,7.2c-35.3,1-70.7,0.8-106,0.5
			c-33.7-0.3-67.3-1.4-100.7-5.8c-7.6-1-15.3-1.7-22.7-3.6c-22.1-5.7-34.2-21-35.6-43.8c-0.3-4.3-0.6-8.7-1.4-12.9
			c-1.5-8.1-6.6-13-14.7-14.3c-4.6-0.7-9.3-0.7-13.9-0.7c-5,0-10,0.6-15,0.6c-42.7,0-85.3,0.1-128,0c-7.3,0-14.7-0.9-22-0.6
			c-13.5,0.7-19.3,6.9-19.3,20.2c-0.2,29.7,0,59.3,7.1,88.4c6.7,28,17,54.2,39.9,73.3c20.1,16.8,44.4,25.4,69.1,32.6
			c37.4,11,76.1,13.1,114.7,14.2c35.6,1,71.3,1.3,107,1.7C2245,1930.3,2268.7,1930.1,2292.3,1930.1z"/>
		<path d="M461.6,1492.2c0,83.9,0,167.9,0,251.8c0,1.7,0,3.3,0.1,5c0.8,12.2,6.4,17.6,18.6,16.8c13-0.9,25.9-2.3,38.8-3.4
			c37.9-3.2,75.6-7.3,113.1-13.5c50.7-8.3,100.9-18.7,150.5-32c12.2-3.3,24.4-6.8,36.6-10.1c17.3-4.7,21.1-10.3,20.9-28.6
			c-0.8-65.6-2-131.2-1.7-196.8c0.2-39,3.9-77.9,14-115.8c11.9-44.8,36.7-80.1,77.4-103.5c20.7-11.9,42.8-19.8,65.8-26
			c46.9-12.8,94.8-18.9,143.1-21c39.6-1.7,79.3-2.3,118.9-2.4c65.7-0.3,131.3-0.3,197,0.5c39.6,0.5,79.3,1.5,118.8,4.5
			c35.5,2.7,71.1,6.5,104.7,19.8c3.7,1.5,7.6,2.7,10.9,4.8c6.8,4.6,6.6,11.8-0.4,16.1c-2.5,1.5-5.5,2.4-8.3,3.4
			c-19.1,6.9-38.3,13.5-57.2,20.8c-18.9,7.3-37.7,15.1-56.4,23.1c-24.5,10.5-48.9,21.3-73.1,32.3c-25.5,11.6-50.8,23.6-76,35.6
			c-14.1,6.7-28.8,9.8-44.5,9.7c-40.3-0.2-80.7-0.5-121,0.1c-29.3,0.4-58.6,1.3-87.9,3.5c-15.2,1.1-30.5,4.1-45.1,8.4
			c-23.5,7-40.8,21.7-49.8,45.3c-6.5,17-10.2,34.5-10.8,52.6c-1.2,34.3-2,68.6-2.9,102.9c-0.1,2,0,4,0.4,6c1.3,6.4,5.3,9,11.6,7.6
			c2.2-0.5,4.4-1.5,6.5-2.6c54.8-28.2,109.7-56.2,164.3-84.8c44.3-23.2,87.8-47.7,132.3-70.6c48-24.7,96.6-48.2,145-72
			c44.6-21.9,90.8-40.1,137.3-57.7c32.4-12.2,65.5-22.5,98.5-32.9c21.9-6.9,44-13.5,66.3-18.8c35-8.3,70.1-16.2,105.4-23
			c32.4-6.3,65-11.6,97.6-16.1c31.3-4.3,62.8-7.6,94.4-10.1c39.2-3.1,78.4-5.2,117.7-7.3c14.6-0.8,29.3-0.6,44-0.6
			c57-0.1,114-0.5,171,0.1c33.6,0.3,67.3,1.3,100.8,4c29.8,2.4,59.4,7.3,87.8,18.3c48.3,18.7,75.8,54.3,87.5,103.7
			c5.5,23.1,8,46.6,9.4,70.2c1.3,21.1-3.2,25.6-24.1,25.6c-55,0-110,0-165,0c-14.5,0-18.9-3.3-21.8-17.8
			c-4.3-22.2-17.4-36-38.7-42.7c-17.7-5.6-36-7.4-54.3-7.5c-76-0.4-152-1-228,0.4c-67,1.2-133.7,8.9-199.8,19.8
			c-48.3,7.9-96.5,17.1-143.6,30.9c-14.1,4.1-28.3,7.5-42.4,11.8c-15.4,4.7-18.1,9.5-17.9,25.5c0.7,64.3,1.3,128.5,1.6,192.8
			c0.2,40.8-4.3,81.2-13.8,120.8c-12.3,50.7-40.1,91-84.8,118.8c-21.4,13.3-44.8,21.6-69.2,28c-35.1,9.2-70.9,12.6-106.9,12.9
			c-127,0.8-254,1.4-380.9,1.1c-34.6-0.1-69.4-1.8-103.7-5.5c-22.3-2.4-44.2-9.4-66.2-14.9c-7.4-1.8-14.4-5.1-21.6-7.7
			c-2.5-0.9-5.1-1.7-7.4-2.9c-4.6-2.3-9-5.1-8.9-10.9c0.1-6.3,5.2-8.1,10.1-9.5c40.2-11.2,78.7-27.2,117.1-43.4
			c34.6-14.7,68.6-31,102.8-46.7c13.3-6.1,26.5-12.5,39.7-18.9c15.6-7.6,32.2-10.2,49.5-10.2c49.3,0.2,98.7,0.3,148-0.1
			c23-0.2,46.1-0.4,68.9-2.6c17.8-1.7,35.7-5.2,52.8-10.5c29.4-9.2,47-30.5,53.6-60.5c4.9-22.5,7.8-45.2,7.9-68.3
			c0.1-25,0.9-49.9,1.4-74.9c0.1-6.3,1-13.3-5.3-17.2c-6.6-4-12.8-0.3-18.8,2.7c-23.2,11.8-46.5,23.3-69.5,35.3
			c-28.7,14.9-57.2,30.1-85.7,45.3c-18.8,10-37.5,20.3-56.3,30.3c-30.3,16.2-60.3,32.9-90.9,48.3c-55,27.8-110,55.6-165.8,81.8
			c-47.6,22.4-96.4,42.3-146.4,59c-33.2,11.1-66.1,23.1-99.8,32.3c-41.1,11.3-82.7,21.2-124.4,29.6c-42.8,8.6-86,15.1-129.1,21.5
			c-24,3.5-48.4,4.4-72.6,7.3c-71.4,8.6-143.1,5.6-214.7,6.6c-12.7,0.2-25.3,0.8-38,1c-15.1,0.3-21.7-3.9-26.7-17.6
			c-1.1-3.1-1.2-7.9,0.4-10.5c3.9-5.9,3.4-12,3.4-18.3c0-165.2,0-330.4,0-495.6c0-41.6,0-83.3,0-124.9c0-5.3-0.1-10.3-3.2-15.3
			c-1.6-2.5-1.2-7.2,0.1-10.2c5.1-11.9,14-16.7,27.6-16.6c54.3,0.7,108.7,0.3,163,0.3c4.3,0,8.7-0.1,13,0.4
			c8.3,1.1,12.5,5.3,13.7,13.5c0.4,2.6,0.4,5.3,0.4,8c0,84.3,0,168.5,0,252.8C461.8,1492.2,461.7,1492.2,461.6,1492.2z"/>
		<path d="M2292.3,1930.1c-23.7,0-47.3,0.2-71,0c-35.7-0.4-71.3-0.7-107-1.7c-38.7-1.1-77.3-3.2-114.7-14.2
			c-24.7-7.3-49-15.8-69.1-32.6c-22.9-19.1-33.1-45.2-39.9-73.3c-7-29.1-7.2-58.7-7.1-88.4c0.1-13.4,5.9-19.6,19.3-20.2
			c7.3-0.4,14.6,0.6,22,0.6c42.7,0.1,85.3,0.1,128,0c5,0,10-0.6,15-0.6c4.6,0,9.4,0,13.9,0.7c8,1.3,13.2,6.2,14.7,14.3
			c0.8,4.2,1.1,8.6,1.4,12.9c1.4,22.8,13.5,38,35.6,43.8c7.4,1.9,15.1,2.6,22.7,3.6c33.4,4.4,67.1,5.5,100.7,5.8
			c35.3,0.3,70.7,0.5,106-0.5c40.9-1.1,82-1.3,122.7-7.2c13.6-2,27-4.2,39.3-10.8c16.3-8.8,25.2-22.3,25.6-41
			c0.2-9.7,0.1-19.3-3.5-28.6c-8.8-23.2-25.9-35.7-49.9-39.2c-9.9-1.5-19.9-2.3-29.9-2.5c-43.6-0.9-87.3-1.7-130.9-1.9
			c-72.7-0.4-145.3,0.4-218-0.9c-32.2-0.6-64.5-4.3-96.5-8.1c-23.3-2.7-45.3-10.8-66.2-21.6c-22-11.4-38.4-28.7-49.9-50.3
			c-15-28.2-20.7-58.9-22.9-90.4c-0.8-11,3.1-16.6,14.3-19.8c14.7-4.2,29.6-8,44.7-10.6c42.6-7.5,85.4-14.5,128.1-21.6
			c2.6-0.4,5.3-0.7,7.9-0.7c8.1,0.1,12.3,3,15.1,10.6c1.6,4.4,2.6,8.9,3.9,13.4c3.2,11.5,10.5,19.9,20.4,26.2
			c11.2,7.1,23.4,11.5,36.6,12c28.3,1,56.6,2,84.9,2.2c45.7,0.4,91.3-0.4,137,0.2c54.6,0.7,109.3,2,163.9,3.8
			c24,0.8,47.9,2.8,71.7,5.3c28.8,3,56.1,11.3,81,26.7c18.6,11.5,32.8,27.2,43.8,45.8c8.2,13.8,14.1,28.6,17.8,44.3
			c1,4.1,3.5,7.8,5,11.7c1,2.7,2.1,5.6,2.1,8.5c0.1,46.6,0.1,93.3,0,139.9c0,2.3,0.2,5.3-1,6.7c-6.1,7-6.5,15.9-9,24.1
			c-14,46.2-43.8,77.5-88.6,95c-27.3,10.7-55.9,15.2-84.6,19.2c-19.1,2.6-38.4,4.9-57.6,5.5c-75.9,2.2-151.9,3.8-227.8,5.5
			C2292.3,1931.1,2292.3,1930.6,2292.3,1930.1z"/>
	</g>
</g>
<g id="Camada_2">
</g>
</svg>
